<svg width="22" height="22" viewBox="0 0 22 22" fill="none" xmlns="http://www.w3.org/2000/svg">
<path d="M9.554 5.24003L6.171 1.33503C5.781 0.88503 5.066 0.88703 4.613 1.34103L1.831 4.12803C1.003 4.95703 0.766003 6.18803 1.245 7.17503C4.10662 13.1 8.88505 17.8851 14.806 20.755C15.792 21.234 17.022 20.997 17.85 20.168L20.658 17.355C21.113 16.9 21.114 16.181 20.66 15.791L16.74 12.426C16.33 12.074 15.693 12.12 15.282 12.532L13.918 13.898C13.8482 13.9712 13.7563 14.0195 13.6564 14.0354C13.5565 14.0513 13.4541 14.0339 13.365 13.986C11.1354 12.7021 9.286 10.8503 8.005 8.61903C7.95703 8.52978 7.93966 8.42726 7.95556 8.32719C7.97145 8.22711 8.01974 8.13502 8.093 8.06503L9.453 6.70403C9.865 6.29003 9.91 5.65003 9.554 5.23903V5.24003Z" stroke="#512689" stroke-width="2" stroke-linecap="round" stroke-linejoin="round"/>
</svg>
